<?xml version="1.0" standalone="no"?><!DOCTYPE svg PUBLIC "-//W3C//DTD SVG 1.1//EN" "http://www.w3.org/Graphics/SVG/1.1/DTD/svg11.dtd"><svg t="1634810153760" class="icon" viewBox="0 0 1024 1024" version="1.1" xmlns="http://www.w3.org/2000/svg" p-id="4626" xmlns:xlink="http://www.w3.org/1999/xlink" width="200" height="200"><defs><style type="text/css"></style></defs><path d="M529.022792 7.339875l487.096905 476.91409c9.869934 9.898378 7.850438 20.479403 7.850437 27.760968 0 18.289244-18.118583 28.443615-24.717501 28.443615H881.75206v457.202665c0 14.4778-14.705349 26.338787-28.443615 26.338787h-199.105304c-13.738266 0-28.443615-11.860987-28.443615-26.338787V654.233007h-227.548918v343.428206c0 14.4778-14.676905 26.338787-28.443615 26.338787H170.661689c-13.738266 0-28.443615-11.860987-28.443615-26.338787V540.458548H24.689058C10.950792 540.458548 0 526.464289 0 512.014933c0-8.191761 3.583895-24.120185 9.215731-28.898713l242.396486-237.390409L495.231778 6.913221a23.665088 23.665088 0 0 1 33.791014 0.426654z" p-id="4627"></path></svg>