<?xml version="1.0" standalone="no"?><!DOCTYPE svg PUBLIC "-//W3C//DTD SVG 1.1//EN" "http://www.w3.org/Graphics/SVG/1.1/DTD/svg11.dtd"><svg t="1632298619456" class="icon" viewBox="0 0 1024 1024" version="1.1" xmlns="http://www.w3.org/2000/svg" p-id="9132" width="200" height="200" xmlns:xlink="http://www.w3.org/1999/xlink"><defs><style type="text/css"></style></defs><path d="M814.933333 1009.066667c-38.4 0-74.666667-14.933333-104.533333-42.666667l-258.133333-256 76.8-76.8 12.8 12.8 29.866666-29.866667 46.933334 46.933334-46.933334 46.933333 196.266667 196.266667c23.466667 23.466667 64 23.466667 89.6 0l53.333333-53.333334c25.6-25.6 25.6-64 0-89.6l-196.266666-196.266666-46.933334 46.933333-46.933333-46.933333 29.866667-29.866667-10.666667-14.933333 76.8-76.8 256 258.133333c57.6 57.6 57.6 151.466667 0 209.066667l-53.333333 53.333333c-29.866667 29.866667-66.133333 42.666667-104.533334 42.666667zM328.533333 490.666667l-85.333333-83.2-113.066667-59.733334L6.4 189.866667 196.266667 0l157.866666 123.733333 59.733334 115.2 89.6 87.466667-59.733334 61.866667-130.133333-130.133334 10.666667-8.533333-36.266667-70.4-85.333333-64-81.066667 81.066667 64 85.333333 70.4 36.266667 8.533333-10.666667 123.733334 123.733333z" p-id="9133"></path><path d="M179.2 1009.066667c-29.866667 0-57.6-10.666667-81.066667-34.133334l-53.333333-53.333333c-44.8-44.8-44.8-117.333333 0-162.133333l452.266667-452.266667c-12.8-83.2 12.8-166.4 72.533333-226.133333C650.666667 0 772.266667-19.2 874.666667 34.133333l51.2 27.733334-149.333334 149.333333 32 32 149.333334-149.333333 27.733333 51.2c53.333333 102.4 34.133333 224-46.933333 305.066666-59.733333 59.733333-145.066667 85.333333-226.133334 72.533334L260.266667 977.066667c-21.333333 21.333333-51.2 32-81.066667 32z m576-917.333334c-44.8 0-89.6 17.066667-123.733333 51.2-44.8 44.8-61.866667 108.8-44.8 168.533334l6.4 23.466666L106.666667 821.333333c-10.666667 10.666667-10.666667 29.866667 0 40.533334l53.333333 53.333333c10.666667 10.666667 29.866667 10.666667 40.533333 0l486.4-486.4 23.466667 6.4c59.733333 17.066667 125.866667-2.133333 168.533333-44.8 38.4-38.4 57.6-93.866667 51.2-145.066667L810.666667 364.8 657.066667 213.333333l119.466666-119.466666c-6.4-2.133333-14.933333-2.133333-21.333333-2.133334z" p-id="9134"></path></svg>